<svg width="120" height="40" viewBox="0 0 120 40" fill="none" xmlns="http://www.w3.org/2000/svg">
  <path d="M15.384 30H10.56L4.32 12H9.48L13.08 23.76L16.68 12H21.624L25.224 23.76L28.824 12H33.984L27.744 30H22.92L19.152 18.24L15.384 30Z" fill="white"/>
  <path d="M39.0994 30V12H44.0474V30H39.0994ZM41.5734 10.2C40.6474 10.2 39.8634 9.912 39.2234 9.336C38.5834 8.76 38.2634 8.04 38.2634 7.176C38.2634 6.312 38.5834 5.592 39.2234 5.016C39.8634 4.44 40.6474 4.152 41.5734 4.152C42.4994 4.152 43.2834 4.44 43.9234 5.016C44.5634 5.592 44.8834 6.312 44.8834 7.176C44.8834 8.04 44.5634 8.76 43.9234 9.336C43.2834 9.912 42.4994 10.2 41.5734 10.2Z" fill="white"/>
  <path d="M53.8883 16.2V23.04C53.8883 23.792 54.0323 24.344 54.3203 24.696C54.6083 25.048 55.1003 25.224 55.7963 25.224C56.2883 25.224 56.7803 25.128 57.2723 24.936L57.4643 29.232C56.7163 29.616 55.7243 29.808 54.4883 29.808C53.0323 29.808 51.8563 29.448 50.9603 28.728C50.0643 28.008 49.6163 26.888 49.6163 25.368V16.2H47.1923V12H49.6163V7.608L54.1763 6.456V12H57.5123V16.2H53.8883Z" fill="white"/>
  <path d="M60.8916 30V12H65.8396V30H60.8916Z" fill="white"/>
  <path d="M84.4016 12H89.3496V30H84.4016V27.432C83.0256 29.304 81.2016 30.24 78.9296 30.24C77.2016 30.24 75.6256 29.808 74.2016 28.944C72.7776 28.08 71.6736 26.888 70.8896 25.368C70.1056 23.848 69.7136 22.12 69.7136 20.184C69.7136 18.248 70.1056 16.52 70.8896 15C71.6736 13.48 72.7776 12.288 74.2016 11.424C75.6256 10.56 77.2016 10.128 78.9296 10.128C81.2016 10.128 83.0256 11.064 84.4016 12.936V12ZM75.0976 24.36C76.0736 25.336 77.3016 25.824 78.7816 25.824C80.2616 25.824 81.4896 25.336 82.4656 24.36C83.4416 23.384 83.9296 21.992 83.9296 20.184C83.9296 18.376 83.4416 16.984 82.4656 16.008C81.4896 15.032 80.2616 14.544 78.7816 14.544C77.3016 14.544 76.0736 15.032 75.0976 16.008C74.1216 16.984 73.6336 18.376 73.6336 20.184C73.6336 21.992 74.1216 23.384 75.0976 24.36Z" fill="white"/>
  <rect x="94" y="8" width="23" height="24" rx="4" fill="white"/>
  <path d="M103.5 26L98 18.6316L100.25 14L108 26H103.5Z" fill="black"/>
  <path d="M108.5 26L113 18.6316L110.75 14L104 26H108.5Z" fill="black"/>
</svg> 